<svg width="51" height="47" viewBox="0 0 51 47" fill="none" xmlns="http://www.w3.org/2000/svg">
<path d="M50.0564 42.1949C42.6406 28.6478 35.2217 15.1006 27.8043 1.55344C27.557 1.08461 27.1863 0.692164 26.7324 0.418417C26.2785 0.14467 25.7585 0 25.2284 0C24.6983 0 24.1783 0.14467 23.7243 0.418417C23.2704 0.692164 22.8998 1.08461 22.6524 1.55344C15.2359 15.1006 7.81297 28.6478 0.400351 42.1949C-0.747405 44.2874 0.71553 47 2.97392 47H47.486C48.7372 47 49.5777 46.3262 50.0161 45.4123C50.5675 44.5418 50.7152 43.3861 50.0596 42.1933" fill="#FFDD15"/>
<path d="M22.8414 27.1523L22.1391 16.6764C22.008 14.636 21.9448 13.1699 21.9448 12.2805C21.9448 11.0688 22.2608 10.1264 22.8943 9.44626C23.5302 8.77009 24.3659 8.43042 25.4023 8.43042C26.6528 8.43042 27.4924 8.86567 27.9127 9.73063C28.3369 10.6011 28.5517 11.8508 28.5517 13.4835C28.5517 14.4433 28.4996 15.4212 28.3953 16.4126L27.4553 27.1942C27.3534 28.4786 27.1362 29.4629 26.8021 30.1477C26.4655 30.8358 25.911 31.1754 25.1361 31.1754C24.3525 31.1754 23.8011 30.8444 23.4994 30.1825C23.189 29.5182 22.9717 28.5079 22.8414 27.1523ZM25.268 41.5424C24.3794 41.5424 23.6044 41.2564 22.9401 40.679C22.2758 40.1039 21.9448 39.2982 21.9448 38.2634C21.9448 37.3605 22.2608 36.5888 22.8943 35.956C23.5302 35.3193 24.3051 35.0034 25.2254 35.0034C26.1456 35.0034 26.9261 35.3193 27.577 35.956C28.2207 36.5888 28.5517 37.3605 28.5517 38.2634C28.5517 39.2824 28.2208 40.0865 27.5675 40.6679C26.9395 41.2402 26.1176 41.5527 25.268 41.5424Z" fill="#1F2E35"/>
</svg>
